<svg width="26" height="26" viewBox="0 0 26 26" fill="none" xmlns="http://www.w3.org/2000/svg">
<path d="M24.2712 7.48625C24.1418 7.00528 23.8883 6.56675 23.5361 6.21455C23.1839 5.86235 22.7453 5.60884 22.2644 5.47938C20.4931 5 13.3756 5 13.3756 5C13.3756 5 6.25811 5 4.48686 5.47938C4.00589 5.60884 3.56737 5.86235 3.21516 6.21455C2.86296 6.56675 2.60945 7.00528 2.47999 7.48625C2.14925 9.29265 1.98876 11.1261 2.00061 12.9625C1.98876 14.7989 2.14925 16.6323 2.47999 18.4387C2.60945 18.9197 2.86296 19.3582 3.21516 19.7104C3.56737 20.0626 4.00589 20.3162 4.48686 20.4456C6.25811 20.925 13.3756 20.925 13.3756 20.925C13.3756 20.925 20.4931 20.925 22.2644 20.4456C22.7453 20.3162 23.1839 20.0626 23.5361 19.7104C23.8883 19.3582 24.1418 18.9197 24.2712 18.4387C24.602 16.6323 24.7625 14.7989 24.7506 12.9625C24.7625 11.1261 24.602 9.29265 24.2712 7.48625ZM11.1006 16.375V9.55L17.0075 12.9625L11.1006 16.375Z" fill="#333333"/>
</svg>
