<svg width="100%" height="100%" id="svg" viewBox="0 0 1440 400" xmlns="http://www.w3.org/2000/svg" class="transition duration-300 ease-in-out delay-150"><path d="M 0,400 C 0,400 0,200 0,200 C 42.39265546227416,222.31738971063484 84.78531092454833,244.63477942126968 131,251 C 177.21468907545167,257.3652205787303 227.2514117640809,247.77827202555608 263,242 C 298.7485882359191,236.22172797444392 320.20904201912805,234.25213247650603 368,236 C 415.79095798087195,237.74786752349397 489.9124201594067,243.21319806841984 536,221 C 582.0875798405933,198.78680193158016 600.1412773432451,148.89507524981454 642,146 C 683.8587226567549,143.10492475018546 749.5224704676131,187.2065009323221 805,201 C 860.4775295323869,214.7934990676779 905.7688407863028,198.27892102089712 940,179 C 974.2311592136972,159.72107897910288 997.4021663871765,137.67781498408942 1031,128 C 1064.5978336128235,118.32218501591056 1108.622493664991,121.00981904274516 1163,145 C 1217.377506335009,168.99018095725484 1282.1078589528597,214.28290884492995 1330,227 C 1377.8921410471403,239.71709115507005 1408.9460705235701,219.85854557753504 1440,200 C 1440,200 1440,400 1440,400 Z" stroke="none" stroke-width="0" fill="#333333ff" class="transition-all duration-300 ease-in-out delay-150 path-0" transform="rotate(-180 720 200)"></path></svg>